<?xml version="1.0" standalone="no"?>
<!DOCTYPE svg PUBLIC "-//W3C//DTD SVG 20010904//EN"
 "http://www.w3.org/TR/2001/REC-SVG-20010904/DTD/svg10.dtd">
<svg version="1.0" xmlns="http://www.w3.org/2000/svg"
 width="25.000000pt" height="25.000000pt" viewBox="0 0 25.000000 25.000000"
 preserveAspectRatio="xMidYMid meet">

<g transform="translate(0.000000,25.000000) scale(0.100000,-0.100000)"
fill="currentColor" stroke="currentColor">
<path d="M47 172 c-23 -25 -21 -39 4 -53 15 -8 18 -14 10 -22 -17 -17 -13 -31
4 -17 13 11 14 10 9 -6 -6 -15 -4 -17 6 -7 11 10 17 9 32 -4 17 -15 17 -17 0
-29 -16 -12 -15 -13 6 -14 12 0 25 7 28 15 4 8 11 15 16 15 6 0 5 -6 -2 -15
-10 -12 -9 -15 4 -15 9 0 20 8 23 18 4 9 15 28 25 41 20 26 24 66 8 76 -5 3
-10 0 -10 -8 0 -8 -7 -21 -16 -28 -17 -14 -14 -16 -75 59 -15 18 -53 15 -72
-6z"/>
</g>
</svg>
